<?xml version="1.0" encoding="UTF-8"?>
<!DOCTYPE svg
  PUBLIC '-//W3C//DTD SVG 1.1//EN'
  'http://www.w3.org/Graphics/SVG/1.1/DTD/svg11.dtd'>
<svg version="1.1" xmlns="http://www.w3.org/2000/svg" width="97.400mm" height="23.764mm">
    <!--Autogenerated with python-barcode 0.16.1-->
    <g id="barcode_group">
        <rect width="100%" height="100%" style="fill:white"/>
        <rect x="6.500mm" y="1.000mm" width="0.800mm" height="15.000mm" style="fill:black;"/>
        <rect x="7.700mm" y="1.000mm" width="0.400mm" height="15.000mm" style="fill:black;"/>
        <rect x="8.900mm" y="1.000mm" width="0.400mm" height="15.000mm" style="fill:black;"/>
        <rect x="10.900mm" y="1.000mm" width="0.800mm" height="15.000mm" style="fill:black;"/>
        <rect x="12.100mm" y="1.000mm" width="1.200mm" height="15.000mm" style="fill:black;"/>
        <rect x="14.500mm" y="1.000mm" width="0.400mm" height="15.000mm" style="fill:black;"/>
        <rect x="15.300mm" y="1.000mm" width="0.800mm" height="15.000mm" style="fill:black;"/>
        <rect x="17.300mm" y="1.000mm" width="0.400mm" height="15.000mm" style="fill:black;"/>
        <rect x="18.100mm" y="1.000mm" width="1.200mm" height="15.000mm" style="fill:black;"/>
        <rect x="19.700mm" y="1.000mm" width="0.400mm" height="15.000mm" style="fill:black;"/>
        <rect x="20.500mm" y="1.000mm" width="0.400mm" height="15.000mm" style="fill:black;"/>
        <rect x="22.100mm" y="1.000mm" width="0.800mm" height="15.000mm" style="fill:black;"/>
        <rect x="24.100mm" y="1.000mm" width="1.200mm" height="15.000mm" style="fill:black;"/>
        <rect x="25.700mm" y="1.000mm" width="1.200mm" height="15.000mm" style="fill:black;"/>
        <rect x="27.300mm" y="1.000mm" width="0.800mm" height="15.000mm" style="fill:black;"/>
        <rect x="28.500mm" y="1.000mm" width="0.400mm" height="15.000mm" style="fill:black;"/>
        <rect x="29.700mm" y="1.000mm" width="0.800mm" height="15.000mm" style="fill:black;"/>
        <rect x="30.900mm" y="1.000mm" width="1.200mm" height="15.000mm" style="fill:black;"/>
        <rect x="32.900mm" y="1.000mm" width="0.400mm" height="15.000mm" style="fill:black;"/>
        <rect x="33.700mm" y="1.000mm" width="1.200mm" height="15.000mm" style="fill:black;"/>
        <rect x="35.300mm" y="1.000mm" width="1.600mm" height="15.000mm" style="fill:black;"/>
        <rect x="37.300mm" y="1.000mm" width="1.200mm" height="15.000mm" style="fill:black;"/>
        <rect x="38.900mm" y="1.000mm" width="0.400mm" height="15.000mm" style="fill:black;"/>
        <rect x="40.500mm" y="1.000mm" width="0.800mm" height="15.000mm" style="fill:black;"/>
        <rect x="41.700mm" y="1.000mm" width="0.400mm" height="15.000mm" style="fill:black;"/>
        <rect x="42.900mm" y="1.000mm" width="1.200mm" height="15.000mm" style="fill:black;"/>
        <rect x="44.500mm" y="1.000mm" width="0.800mm" height="15.000mm" style="fill:black;"/>
        <rect x="46.100mm" y="1.000mm" width="1.600mm" height="15.000mm" style="fill:black;"/>
        <rect x="48.100mm" y="1.000mm" width="0.400mm" height="15.000mm" style="fill:black;"/>
        <rect x="48.900mm" y="1.000mm" width="0.400mm" height="15.000mm" style="fill:black;"/>
        <rect x="50.500mm" y="1.000mm" width="0.400mm" height="15.000mm" style="fill:black;"/>
        <rect x="51.300mm" y="1.000mm" width="1.600mm" height="15.000mm" style="fill:black;"/>
        <rect x="53.300mm" y="1.000mm" width="1.200mm" height="15.000mm" style="fill:black;"/>
        <rect x="54.900mm" y="1.000mm" width="0.400mm" height="15.000mm" style="fill:black;"/>
        <rect x="56.100mm" y="1.000mm" width="0.800mm" height="15.000mm" style="fill:black;"/>
        <rect x="57.300mm" y="1.000mm" width="1.200mm" height="15.000mm" style="fill:black;"/>
        <rect x="59.300mm" y="1.000mm" width="0.800mm" height="15.000mm" style="fill:black;"/>
        <rect x="61.300mm" y="1.000mm" width="0.400mm" height="15.000mm" style="fill:black;"/>
        <rect x="62.100mm" y="1.000mm" width="1.200mm" height="15.000mm" style="fill:black;"/>
        <rect x="63.700mm" y="1.000mm" width="0.800mm" height="15.000mm" style="fill:black;"/>
        <rect x="64.900mm" y="1.000mm" width="1.200mm" height="15.000mm" style="fill:black;"/>
        <rect x="67.300mm" y="1.000mm" width="0.400mm" height="15.000mm" style="fill:black;"/>
        <rect x="68.100mm" y="1.000mm" width="0.400mm" height="15.000mm" style="fill:black;"/>
        <rect x="68.900mm" y="1.000mm" width="1.200mm" height="15.000mm" style="fill:black;"/>
        <rect x="70.500mm" y="1.000mm" width="0.800mm" height="15.000mm" style="fill:black;"/>
        <rect x="72.500mm" y="1.000mm" width="0.400mm" height="15.000mm" style="fill:black;"/>
        <rect x="73.300mm" y="1.000mm" width="0.400mm" height="15.000mm" style="fill:black;"/>
        <rect x="74.900mm" y="1.000mm" width="0.800mm" height="15.000mm" style="fill:black;"/>
        <rect x="76.900mm" y="1.000mm" width="0.400mm" height="15.000mm" style="fill:black;"/>
        <rect x="77.700mm" y="1.000mm" width="0.400mm" height="15.000mm" style="fill:black;"/>
        <rect x="79.300mm" y="1.000mm" width="0.800mm" height="15.000mm" style="fill:black;"/>
        <rect x="81.300mm" y="1.000mm" width="0.400mm" height="15.000mm" style="fill:black;"/>
        <rect x="82.500mm" y="1.000mm" width="0.800mm" height="15.000mm" style="fill:black;"/>
        <rect x="84.900mm" y="1.000mm" width="0.400mm" height="15.000mm" style="fill:black;"/>
        <rect x="85.700mm" y="1.000mm" width="0.800mm" height="15.000mm" style="fill:black;"/>
        <rect x="87.700mm" y="1.000mm" width="1.200mm" height="15.000mm" style="fill:black;"/>
        <rect x="89.300mm" y="1.000mm" width="0.400mm" height="15.000mm" style="fill:black;"/>
        <rect x="90.100mm" y="1.000mm" width="0.800mm" height="15.000mm" style="fill:black;"/>
        <text x="48.700mm" y="21.000mm" style="fill:black;font-size:10pt;text-anchor:middle;">TRAP-551697-RTMAA</text>
    </g>
</svg>
